<?xml version="1.0" encoding="UTF-8" standalone="no"?>
<svg
   xmlns:dc="http://purl.org/dc/elements/1.1/"
   xmlns:cc="http://creativecommons.org/ns#"
   xmlns:rdf="http://www.w3.org/1999/02/22-rdf-syntax-ns#"
   xmlns:svg="http://www.w3.org/2000/svg"
   xmlns="http://www.w3.org/2000/svg"
   viewBox="0 0 480.88751 137.85001"
   height="137.85001"
   width="480.88751"
   xml:space="preserve"
   version="1.1"
   id="svg2"><metadata
     id="metadata8"><rdf:RDF><cc:Work
         rdf:about=""><dc:format>image/svg+xml</dc:format><dc:type
           rdf:resource="http://purl.org/dc/dcmitype/StillImage" /></cc:Work></rdf:RDF></metadata><defs
     id="defs6" /><g
     transform="matrix(1.25,0,0,-1.25,0,137.85)"
     id="g10"><g
       transform="scale(0.1,0.1)"
       id="g12"><path
         id="path14"
         style="fill:#2a3540;fill-opacity:1;fill-rule:nonzero;stroke:none"
         d="M 120.121,671.84 0,891.285 l 50.4414,0 85.2776,-159.121 9.004,-31.719 0.527,0 9.531,32.754 81.821,158.086 45.757,0 -119.078,-218.926 0,-145.078 -43.16,0 0,144.559" /><path
         id="path16"
         style="fill:#2a3540;fill-opacity:1;fill-rule:nonzero;stroke:none"
         d="m 386.355,709.281 c 0,-20.105 1.997,-39.179 5.985,-57.195 3.976,-18.039 10.14,-33.898 18.461,-47.59 8.32,-13.691 18.98,-24.617 31.976,-32.754 13.004,-8.152 28.34,-12.226 46.024,-12.226 32.238,0 57.543,12.226 75.922,36.66 18.367,24.445 27.558,62.14 27.558,113.105 0,19.758 -2.004,38.742 -5.98,56.934 -3.992,18.203 -10.231,34.152 -18.723,47.844 -8.496,13.691 -19.238,24.609 -32.234,32.761 -13.004,8.145 -28.524,12.219 -46.543,12.219 -31.903,0 -56.942,-12.219 -75.145,-36.66 -18.195,-24.434 -27.301,-62.141 -27.301,-113.098 z m -45.753,0 c 0,60.664 12.82,107.199 38.476,139.621 25.652,32.411 62.223,48.621 109.723,48.621 25.648,0 47.84,-4.511 66.558,-13.523 18.719,-9.016 34.231,-21.758 46.539,-38.223 12.301,-16.464 21.403,-36.222 27.301,-59.277 5.891,-23.059 8.836,-48.801 8.836,-77.219 0,-60.672 -12.914,-107.207 -38.734,-139.617 -25.828,-32.422 -62.66,-48.625 -110.5,-48.625 -25.309,0 -47.238,4.512 -65.781,13.516 -18.551,9.015 -33.977,21.758 -46.282,38.222 -12.308,16.465 -21.406,36.223 -27.3,59.278 -5.899,23.058 -8.836,48.8 -8.836,77.226" /><path
         id="path18"
         style="fill:#2a3540;fill-opacity:1;fill-rule:nonzero;stroke:none"
         d="m 851.754,858.004 c -4.508,0 -9.191,0 -14.039,0 -4.86,0 -9.535,-0.188 -14.039,-0.527 -4.512,-0.344 -8.758,-0.696 -12.738,-1.036 -3.997,-0.351 -7.204,-0.871 -9.625,-1.562 l 0,-134.16 40.562,0 c 23.922,0 43.684,5.886 59.281,17.683 15.598,11.778 23.399,30.157 23.399,55.118 0,18.722 -6.418,34.14 -19.239,46.281 -12.832,12.129 -30.683,18.203 -53.562,18.203 z m -93.602,29.637 c 13.176,2.422 28.34,4.328 45.504,5.722 17.16,1.379 32.836,2.082 47.059,2.082 15.941,0 31.109,-1.738 45.5,-5.207 14.383,-3.465 27.043,-9.187 37.961,-17.156 10.918,-7.98 19.672,-18.379 26.258,-31.203 6.582,-12.832 9.882,-28.426 9.882,-46.797 0,-28.426 -7.8,-51.484 -23.402,-69.16 -15.601,-17.684 -35.359,-29.473 -59.277,-35.359 l 24.957,-19.239 90.486,-144.043 -50.443,0 -100.364,157.039 -50.96,7.805 0,-164.844 -43.161,0 0,360.36" /><path
         id="path20"
         style="fill:#2a3540;fill-opacity:1;fill-rule:nonzero;stroke:none"
         d="m 1181.95,695.758 -24.45,0 0,-168.477 -43.15,0 0,364.004 43.15,0 0,-169.523 23.41,7.277 122.2,162.246 49.92,0 -121.68,-156.523 -21.84,-17.16 26.52,-20.801 133.12,-169.52 -54.6,0 -132.6,168.477" /><path
         id="path22"
         style="fill:#2a3540;fill-opacity:1;fill-rule:nonzero;stroke:none"
         d="M 273.52,22.1797 C 262.422,14.2695 248.301,8.60156 231.137,5.16016 213.98,1.71875 196.383,0 178.359,0 156.52,0 135.801,3.37891 116.223,10.1406 96.6328,16.8984 79.3789,27.8203 64.4766,42.8984 49.5703,57.9805 37.6992,77.5586 28.8555,101.66 c -8.836,24.086 -13.2539,53.297 -13.2539,87.621 0,35.703 4.9414,65.598 14.8164,89.699 9.8789,24.09 22.7031,43.504 38.4843,58.243 15.7696,14.726 33.3597,25.3 52.7777,31.718 19.41,6.407 38.824,9.618 58.242,9.618 20.797,0 38.391,-1.387 52.777,-4.161 14.379,-2.773 26.262,-6.062 35.621,-9.882 l -14.039,-60.313 c -7.98,3.809 -17.422,6.582 -28.343,8.32 -10.918,1.731 -24.18,2.598 -39.778,2.598 -28.777,0 -51.918,-10.254 -69.422,-30.742 -17.5114,-20.508 -26.2614,-52.285 -26.2614,-95.359 0,-18.762 2.082,-35.872 6.2422,-51.329 4.1602,-15.461 10.4842,-28.664 18.9802,-39.6012 8.489,-10.9414 19.063,-19.4492 31.723,-25.539 12.644,-6.0703 27.301,-9.1094 43.933,-9.1094 15.602,0 28.778,1.5586 39.524,4.6797 10.742,3.1172 20.101,7.0977 28.082,11.9609 L 273.52,22.1797" /><path
         id="path24"
         style="fill:#2a3540;fill-opacity:1;fill-rule:nonzero;stroke:none"
         d="m 410.797,189.281 c 0,-18.379 1.562,-35.281 4.683,-50.703 3.118,-15.43 7.879,-28.691 14.293,-39.7772 6.415,-11.1016 14.645,-19.7617 24.704,-26 10.05,-6.2422 22.011,-9.3594 35.878,-9.3594 25.305,0 44.895,9.8789 58.762,29.6367 13.863,19.7579 20.801,51.8199 20.801,96.2029 0,17.676 -1.48,34.141 -4.422,49.395 -2.945,15.254 -7.535,28.605 -13.777,40.039 -6.239,11.445 -14.391,20.363 -24.446,26.789 -10.054,6.406 -22.355,9.617 -36.918,9.617 -25.304,0 -44.894,-10.144 -58.757,-30.418 -13.868,-20.285 -20.801,-52.09 -20.801,-95.422 z m -74.879,0 c 0,60.664 13.34,107.383 40.039,140.137 26.688,32.766 64.82,49.141 114.398,49.141 26,0 48.704,-4.512 68.122,-13.516 19.41,-9.023 35.531,-21.844 48.359,-38.484 12.82,-16.641 22.363,-36.575 28.602,-59.797 6.238,-23.231 9.359,-49.063 9.359,-77.481 0,-60.672 -13.442,-107.3826 -40.301,-140.1404 C 577.629,16.3789 539.578,0 490.355,0 464.008,0 441.129,4.51172 421.719,13.5195 402.301,22.5313 386.27,35.3594 373.617,52 c -12.66,16.6406 -22.097,36.5703 -28.34,59.801 -6.238,23.222 -9.359,49.054 -9.359,77.48" /><path
         id="path26"
         style="fill:#2a3540;fill-opacity:1;fill-rule:nonzero;stroke:none"
         d="m 833.031,197.086 -28.597,57.195 -2.602,0 8.32,-57.195 0,-189.80475 -67.597,0 0,366.60175 51.996,0 137.804,-193.965 27.555,-55.637 2.606,0 -8.321,55.637 0,191.367 67.595,0 0,-366.60531 -51.993,0 L 833.031,197.086" /><path
         id="path28"
         style="fill:#2a3540;fill-opacity:1;fill-rule:nonzero;stroke:none"
         d="M 1376.95,22.1797 C 1365.85,14.2695 1351.73,8.60156 1334.57,5.16016 1317.41,1.71875 1299.81,0 1281.79,0 c -21.84,0 -42.56,3.37891 -62.14,10.1406 -19.59,6.7578 -36.84,17.6797 -51.74,32.7578 -14.91,15.0821 -26.78,34.6602 -35.62,58.7616 -8.84,24.086 -13.26,53.297 -13.26,87.621 0,35.703 4.94,65.598 14.82,89.699 9.88,24.09 22.7,43.504 38.48,58.243 15.78,14.726 33.36,25.3 52.78,31.718 19.41,6.407 38.83,9.618 58.24,9.618 20.8,0 38.39,-1.387 52.78,-4.161 14.38,-2.773 26.26,-6.062 35.62,-9.882 l -14.04,-60.313 c -7.98,3.809 -17.42,6.582 -28.34,8.32 -10.92,1.731 -24.18,2.598 -39.78,2.598 -28.77,0 -51.91,-10.254 -69.42,-30.742 -17.51,-20.508 -26.26,-52.285 -26.26,-95.359 0,-18.762 2.08,-35.872 6.24,-51.329 4.16,-15.461 10.48,-28.664 18.98,-39.6012 8.49,-10.9414 19.06,-19.4492 31.72,-25.539 12.65,-6.0703 27.3,-9.1094 43.94,-9.1094 15.6,0 28.77,1.5586 39.52,4.6797 10.74,3.1172 20.1,7.0977 28.08,11.9609 l 14.56,-57.9023" /><path
         id="path30"
         style="fill:#2a3540;fill-opacity:1;fill-rule:nonzero;stroke:none"
         d="m 1467.95,371.285 215.8,0 0,-63.449 -144.56,0 0,-84.754 131.56,0 0,-63.437 -131.56,0 0,-88.9262 147.16,0 0,-63.43755 -218.4,0 0,364.00375" /><path
         id="path32"
         style="fill:#2a3540;fill-opacity:1;fill-rule:nonzero;stroke:none"
         d="m 1895.38,313.043 c -7.28,0 -14.48,-0.176 -21.58,-0.52 -7.11,-0.351 -12.57,-1.043 -16.38,-2.078 l 0,-105.566 30.16,0 c 19.76,0 35.53,4.5 47.32,13.523 11.78,9.004 17.68,23.918 17.68,44.719 0,15.594 -4.86,27.82 -14.56,36.66 -9.71,8.836 -23.92,13.262 -42.64,13.262 z m -109.2,54.598 c 7.97,1.379 16.55,2.675 25.74,3.898 9.18,1.211 18.37,2.168 27.56,2.859 9.18,0.696 18.11,1.211 26.78,1.563 8.66,0.344 16.64,0.519 23.92,0.519 16.98,0 33.71,-1.562 50.18,-4.679 16.46,-3.125 31.2,-8.496 44.2,-16.121 13,-7.629 23.4,-18.117 31.2,-31.457 7.8,-13.348 11.7,-30.078 11.7,-50.184 0,-29.816 -6.94,-54.082 -20.8,-72.793 -13.87,-18.723 -32.42,-31.73 -55.64,-39.004 l 25.48,-16.125 83.2,-138.83575 -82.16,0 -82.68,142.48075 -37.44,6.758 0,-149.23875 -71.24,0 0,360.35975" /><path
         id="path34"
         style="fill:#2a3540;fill-opacity:1;fill-rule:nonzero;stroke:none"
         d="m 2378.97,307.836 -106.07,0 0,-300.55475 -71.24,0 0,300.55475 -106.61,0 0,63.449 283.92,0 0,-63.449" /><path
         id="path36"
         style="fill:#2a3540;fill-opacity:1;fill-rule:nonzero;stroke:none"
         d="m 2619.73,105.043 c 0,11.086 -4.08,20.098 -12.23,27.043 -8.14,6.922 -18.36,13.25 -30.66,18.973 -12.31,5.722 -25.66,11.613 -40.05,17.687 -14.39,6.055 -27.73,13.516 -40.04,22.352 -12.31,8.84 -22.54,19.843 -30.68,33.019 -8.15,13.172 -12.22,29.981 -12.22,50.438 0,17.687 2.95,33.027 8.85,46.027 5.88,12.996 14.29,23.828 25.22,32.5 10.91,8.66 23.82,15.078 38.74,19.238 14.9,4.16 31.53,6.239 49.91,6.239 21.15,0 41.09,-1.817 59.8,-5.457 18.73,-3.645 34.14,-8.926 46.29,-15.86 l -22.36,-59.804 c -7.64,4.851 -19.08,9.277 -34.32,13.261 -15.27,3.985 -31.73,5.985 -49.41,5.985 -16.63,0 -29.38,-3.301 -38.22,-9.883 -8.84,-6.59 -13.26,-15.43 -13.26,-26.524 0,-10.398 4.08,-19.07 12.22,-25.996 8.14,-6.941 18.37,-13.347 30.68,-19.238 12.3,-5.898 25.65,-11.961 40.04,-18.203 14.38,-6.238 27.74,-13.777 40.04,-22.617 12.31,-8.848 22.54,-19.766 30.68,-32.762 8.15,-13 12.23,-29.211 12.23,-48.625 0,-19.4141 -3.22,-36.1368 -9.63,-50.1758 -6.42,-14.0391 -15.43,-25.7383 -27.03,-35.1016 C 2642.7,18.1992 2628.66,11.2617 2612.19,6.76172 2595.72,2.26172 2577.61,0 2557.86,0 c -26,0 -48.89,2.42969 -68.65,7.28125 -19.76,4.84765 -34.32,9.69925 -43.68,14.55855 l 22.88,60.8399 c 3.82,-2.0781 8.75,-4.3399 14.82,-6.7578 6.07,-2.4336 12.91,-4.6836 20.54,-6.7617 7.63,-2.0782 15.68,-3.8204 24.18,-5.1993 8.5,-1.3906 17.25,-2.082 26.26,-2.082 21.15,0 37.35,3.5508 48.63,10.6602 11.25,7.1015 16.89,17.9414 16.89,32.5039" /><path
         id="path38"
         style="fill:#db0c7d;fill-opacity:1;fill-rule:nonzero;stroke:none"
         d="m 3443.86,7.28125 403.23,0 0,60 -403.23,0 0,-60 z" /><path
         id="path40"
         style="fill:#58b335;fill-opacity:1;fill-rule:nonzero;stroke:none"
         d="m 3202.92,136.711 644.168,0 0,60 -644.168,0 0,-60 z" /><path
         id="path42"
         style="fill:#459cdc;fill-opacity:1;fill-rule:nonzero;stroke:none"
         d="m 3168.29,266.148 678.801,0 0,60 -678.801,0 0,-60 z" /><path
         id="path44"
         style="fill:#f36023;fill-opacity:1;fill-rule:nonzero;stroke:none"
         d="m 2912.37,395.59 934.719,0 0,60 -934.719,0 0,-60 z" /><path
         id="path46"
         style="fill:#41bdab;fill-opacity:1;fill-rule:nonzero;stroke:none"
         d="m 2593.47,525.031 1253.62,0 0,60 -1253.62,0 0,-60 z" /><path
         id="path48"
         style="fill:#a56dbd;fill-opacity:1;fill-rule:nonzero;stroke:none"
         d="m 2965.71,654.469 881.379,0 0,60 -881.379,0 0,-60 z" /><path
         id="path50"
         style="fill:#ee2840;fill-opacity:1;fill-rule:nonzero;stroke:none"
         d="m 3202.92,783.898 644.168,0 0,60 -644.168,0 0,-60 z" /><path
         id="path52"
         style="fill:#f9ad21;fill-opacity:1;fill-rule:nonzero;stroke:none"
         d="m 3032.84,913.34 814.25,0 0,60 -814.25,0 0,-60 z" /><path
         id="path54"
         style="fill:#adda23;fill-opacity:1;fill-rule:nonzero;stroke:none"
         d="m 2729.72,1042.78 1117.37,0 0,60 -1117.37,0 0,-60 z" /></g></g></svg>